<?xml version="1.0" encoding="utf-8"?>
<!-- Generator: Adobe Illustrator 27.5.0, SVG Export Plug-In . SVG Version: 6.00 Build 0)  -->
<svg version="1.1" xmlns="http://www.w3.org/2000/svg" xmlns:xlink="http://www.w3.org/1999/xlink" x="0px" y="0px"
	 viewBox="0 0 500 500" style="enable-background:new 0 0 500 500;" xml:space="preserve">
<g id="BACKGROUND">
	<rect style="fill:#81DFFF;" width="500" height="500"/>
	<ellipse style="fill:#B7EDFF;" cx="252.823" cy="326.31" rx="214.656" ry="122.896"/>
</g>
<g id="OBJECTS">
	<path style="opacity:0.3;fill:#828BA4;" d="M335.13,239.732L150.326,346.429l-0.114,0.024l-0.001-0.001v0.001l-18.008,3.808
		c-2.292-0.407-4.48,1.122-4.887,3.415l0,0c-0.407,2.292,1.122,4.48,3.415,4.887l20.68-4.373l80.644,46.56l-11.714,2.477
		c-2.292-0.407-4.48,1.122-4.887,3.415v0c-0.406,2.292,1.122,4.48,3.415,4.887l23.316-4.931l6.639,3.833v0.062l42.591-25.424
		c-0.115,1.039-0.151,2.088-0.092,3.146c0.893,15.95,21.717,27.754,46.513,26.366c24.795-1.389,44.171-15.444,43.278-31.394
		c-0.822-14.672-18.512-25.827-40.641-26.441l93.245-53.001v-7.044l0.041-0.026L335.13,239.732z"/>
	<g style="opacity:0.8;">
		<polygon style="fill:#454C61;" points="186.7,140.817 116.705,182.131 115.861,181.712 115.859,130.59 186.698,89.695 
			187.523,90.117 		"/>
		<g>
			<polygon style="fill:#30384F;" points="187.541,141.238 116.703,182.133 116.701,131.011 187.539,90.116 			"/>
			<g>
				<polygon style="fill:#FFFFFF;" points="123.352,136.604 121.381,137.742 121.381,136.13 123.352,134.993 				"/>
				<polygon style="fill:#F5D533;" points="152.17,119.968 125.548,135.336 125.548,133.725 152.17,118.356 				"/>
				<polygon style="fill:#FFFFFF;" points="123.352,140.385 121.381,141.522 121.381,139.91 123.352,138.773 				"/>
				<polygon style="fill:#F5D533;" points="137.843,132.019 125.548,139.117 125.548,137.505 137.843,130.407 				"/>
				<polygon style="fill:#FFFFFF;" points="123.352,144.165 121.382,145.302 121.382,143.691 123.352,142.553 				"/>
				<polygon style="fill:#F5D533;" points="144.206,132.126 125.548,142.897 125.548,141.285 144.206,130.514 				"/>
				<polygon style="fill:#FFFFFF;" points="123.352,147.945 121.382,149.083 121.382,147.471 123.352,146.333 				"/>
				<polygon style="fill:#F5D533;" points="147.819,133.82 125.549,146.677 125.548,145.065 147.819,132.209 				"/>
			</g>
			<g>
				<polygon style="fill:#FFFFFF;" points="123.352,153.443 121.382,154.581 121.382,152.969 123.352,151.832 				"/>
				<polygon style="fill:#FF6469;" points="139.65,144.035 125.549,152.176 125.549,150.564 139.65,142.423 				"/>
				<polygon style="fill:#FFFFFF;" points="123.353,157.224 121.382,158.361 121.382,156.75 123.353,155.612 				"/>
				<polygon style="fill:#FF6469;" points="151.432,141.014 125.549,155.956 125.549,154.344 151.432,139.402 				"/>
				<polygon style="fill:#FFFFFF;" points="123.353,161.004 121.382,162.141 121.382,160.53 123.353,159.392 				"/>
				<polygon style="fill:#FF6469;" points="135.75,153.847 125.549,159.736 125.549,158.124 135.75,152.235 				"/>
				<polygon style="fill:#FFFFFF;" points="123.353,164.784 121.382,165.922 121.382,164.31 123.353,163.173 				"/>
				<polygon style="fill:#FF6469;" points="143.796,152.982 125.549,163.516 125.549,161.905 143.796,151.37 				"/>
			</g>
			<g>
				<polygon style="fill:#FFFFFF;" points="165.306,112.001 166.809,111.134 166.809,109.905 165.306,110.772 				"/>
				<polygon style="fill:#FFFFFF;" points="178.935,102.904 168.484,108.938 168.484,110.167 178.935,104.133 				"/>
				<polygon style="fill:#FFFFFF;" points="165.306,114.884 166.809,114.017 166.809,112.788 165.306,113.655 				"/>
				<polygon style="fill:#FFFFFF;" points="173.311,109.034 168.484,111.821 168.484,113.05 173.311,110.263 				"/>
				<polygon style="fill:#FFFFFF;" points="165.307,117.768 166.809,116.9 166.809,115.671 165.307,116.538 				"/>
				<polygon style="fill:#FFFFFF;" points="175.809,110.475 168.484,114.704 168.484,115.933 175.809,111.704 				"/>
				<polygon style="fill:#FFFFFF;" points="165.307,120.65 166.809,119.783 166.809,118.554 165.307,119.421 				"/>
				<polygon style="fill:#FFFFFF;" points="177.227,112.539 168.484,117.587 168.484,118.816 177.227,113.769 				"/>
				<polygon style="fill:#FFFFFF;" points="165.307,124.844 166.81,123.977 166.81,122.747 165.307,123.615 				"/>
				<polygon style="fill:#FFFFFF;" points="175.297,117.848 168.485,121.78 168.485,123.009 175.297,119.077 				"/>
				<polygon style="fill:#FFFFFF;" points="165.307,127.727 166.81,126.86 166.81,125.63 165.307,126.498 				"/>
				<polygon style="fill:#FFFFFF;" points="168.485,124.663 168.485,125.893 180.989,118.674 180.989,117.445 				"/>
				<polygon style="fill:#FFFFFF;" points="165.307,130.61 166.81,129.743 166.81,128.514 165.307,129.381 				"/>
				<polygon style="fill:#FFFFFF;" points="173.413,124.701 168.485,127.547 168.485,128.776 173.413,125.931 				"/>
				<polygon style="fill:#FFFFFF;" points="165.307,133.493 166.81,132.626 166.81,131.397 165.307,132.264 				"/>
				<polygon style="fill:#FFFFFF;" points="168.485,131.659 177.3,126.57 177.3,125.341 168.485,130.43 				"/>
			</g>
		</g>
	</g>
	<g style="opacity:0.8;">
		<polygon style="fill:#75C1F8;" points="224.822,139.699 154.827,181.013 153.983,180.594 153.981,129.472 224.82,88.577 
			225.645,88.999 		"/>
		<g>
			<polygon style="fill:#B8DFFB;" points="225.702,140.19 154.864,181.085 154.862,129.963 225.7,89.068 			"/>
			<g>
				<polygon style="fill:#3FA9F5;" points="212.604,134.49 167.961,160.263 167.96,136.373 212.603,110.6 				"/>
				<polygon style="fill:#FFFFFF;" points="208.995,118.401 171.568,140.008 171.568,138.977 208.995,117.37 				"/>
				<polygon style="fill:#FFFFFF;" points="208.995,122.009 171.568,143.616 171.568,142.585 208.995,120.979 				"/>
				<polygon style="fill:#FFFFFF;" points="208.995,125.618 171.569,147.225 171.569,146.193 208.995,124.587 				"/>
			</g>
			<polygon style="fill:#3FA9F5;" points="225.7,93.998 154.862,134.892 154.862,129.963 225.7,89.068 			"/>
		</g>
	</g>
	<g>
		<path style="fill:#F5D533;" d="M237.238,68.935c-0.786,1.366-1.271,2.903-1.271,4.291l0.001,23.828
			c0,2.786,5.726,6.71,8.139,5.317l18.866-13.708c1.231-0.711,2.342-1.942,3.136-3.347
			C257.191,80.265,246.657,73.224,237.238,68.935z"/>
		<path style="fill:#FBEDA7;" d="M262.972,88.662l-18.866,13.708c-2.412,1.393-8.138-2.531-8.139-5.317l-0.001-23.828
			c0-2.786,1.956-6.173,4.368-7.566l20.636-11.913c2.413-1.393,8.431,1.468,8.457,3.945l-2.088,23.405
			C267.34,83.882,265.384,87.27,262.972,88.662z"/>
		<path style="fill:#F5D533;" d="M237.238,68.935c-0.786,1.366-1.271,2.903-1.271,4.291l0.001,23.828
			c0,2.786,5.726,6.71,8.139,5.317l18.866-13.708c1.231-0.711,2.342-1.942,3.136-3.347
			C257.191,80.265,246.657,73.224,237.238,68.935z"/>
		<path style="fill:#F9E88F;" d="M237.238,68.935c-0.786,1.366-1.271,2.903-1.271,4.291l0.001,23.828
			c0,2.786,5.726,6.71,8.139,5.317l18.866-13.708c1.231-0.711,2.342-1.942,3.136-3.347
			C257.191,80.265,246.657,73.224,237.238,68.935z"/>
		<path style="fill:#F5D533;" d="M265.288,90.207l-20.636,11.913c-2.413,1.393-4.368,0.264-4.368-2.522l-0.001-23.828
			c0-2.786,1.956-6.173,4.368-7.566l20.636-11.913c2.412-1.393,4.368-0.264,4.368,2.522l0.001,23.828
			C269.656,85.427,267.701,88.814,265.288,90.207z"/>
		
			<text transform="matrix(0.866 -0.5 4.000000e-05 1 247.3221 88.5381)" style="fill:#79829D; font-family:'Comfortaa'; font-size:15.3974px;">&lt;/&gt;</text>
		<linearGradient id="SVGID_1_" gradientUnits="userSpaceOnUse" x1="261.5023" y1="95.0546" x2="243.8284" y2="41.6341">
			<stop  offset="0" style="stop-color:#EDFAFF"/>
			<stop  offset="1" style="stop-color:#30384F;stop-opacity:0"/>
		</linearGradient>
		<path style="opacity:0.7;fill:url(#SVGID_1_);" d="M269.656,65.17l0-6.357c0-2.786-1.956-3.915-4.368-2.522l-20.636,11.913
			c-2.412,1.393-4.368,4.78-4.368,7.566l0.001,16.828C248.567,80.393,258.83,70.504,269.656,65.17z"/>
	</g>
	<g>
		<path style="fill:#B4ECFF;" d="M129.73,107.697l-18.866,13.708c-2.412,1.393-8.139-2.531-8.139-5.317l-0.001-23.828
			c0-2.786,1.955-6.173,4.368-7.566l20.636-11.913c2.412-1.393,8.431,1.468,8.457,3.945l-2.088,23.405
			C134.099,102.917,132.143,106.304,129.73,107.697z"/>
		<path style="fill:#3FA9F5;" d="M103.997,87.969c-0.786,1.366-1.271,2.903-1.271,4.291l0.001,23.828
			c0,2.786,5.726,6.71,8.139,5.317l18.866-13.708c1.231-0.711,2.342-1.942,3.136-3.347C123.95,99.299,113.415,92.258,103.997,87.969
			z"/>
		<path style="fill:#3FA9F5;" d="M103.997,87.969c-0.786,1.366-1.271,2.903-1.271,4.291l0.001,23.828
			c0,2.786,5.726,6.71,8.139,5.317l18.866-13.708c1.231-0.711,2.342-1.942,3.136-3.347C123.95,99.299,113.415,92.258,103.997,87.969
			z"/>
		<path style="fill:#95D0F9;" d="M103.997,87.969c-0.786,1.366-1.271,2.903-1.271,4.291l0.001,23.828
			c0,2.786,5.726,6.71,8.139,5.317l18.866-13.708c1.231-0.711,2.342-1.942,3.136-3.347C123.95,99.299,113.415,92.258,103.997,87.969
			z"/>
		<path style="fill:#3FA9F5;" d="M132.047,109.241l-20.636,11.913c-2.413,1.393-4.368,0.264-4.368-2.522l-0.001-23.828
			c0-2.786,1.955-6.173,4.368-7.566l20.636-11.913c2.412-1.393,4.368-0.264,4.368,2.522l0.001,23.828
			C136.415,104.461,134.459,107.848,132.047,109.241z"/>
		
			<text transform="matrix(0.866 -0.5 4.000000e-05 1 110.9083 108.8139)" style="fill:#FFFFFF; font-family:'Comfortaa-Bold'; font-size:13px;">{...}</text>
		
			<linearGradient id="SVGID_00000000936770028914830140000012868529979123728002_" gradientUnits="userSpaceOnUse" x1="128.261" y1="114.089" x2="110.587" y2="60.6686">
			<stop  offset="0" style="stop-color:#EDFAFF"/>
			<stop  offset="1" style="stop-color:#30384F;stop-opacity:0"/>
		</linearGradient>
		<path style="opacity:0.7;fill:url(#SVGID_00000000936770028914830140000012868529979123728002_);" d="M136.414,84.205l0-6.357
			c0-2.786-1.956-3.915-4.368-2.522L111.41,87.239c-2.412,1.393-4.368,4.78-4.368,7.566l0.001,16.828
			C115.326,99.427,125.588,89.539,136.414,84.205z"/>
	</g>
	<g>
		<path style="fill:#FFBCBE;" d="M199.524,75.697l-18.866,13.708c-2.413,1.393-8.139-2.531-8.139-5.317l-0.001-23.828
			c0-2.786,1.956-6.173,4.368-7.566l20.636-11.913c2.412-1.393,8.431,1.468,8.457,3.945l-2.088,23.405
			C203.892,70.917,201.936,74.304,199.524,75.697z"/>
		<path style="fill:#FF6469;" d="M173.79,55.969c-0.786,1.366-1.271,2.903-1.271,4.291l0.001,23.828c0,2.786,5.726,6.71,8.139,5.317
			l18.866-13.708c1.231-0.711,2.342-1.942,3.136-3.347C193.743,67.299,183.209,60.258,173.79,55.969z"/>
		<path style="fill:#FFAAAC;" d="M173.79,55.969c-0.786,1.366-1.271,2.903-1.271,4.291l0.001,23.828c0,2.786,5.726,6.71,8.139,5.317
			l18.866-13.708c1.231-0.711,2.342-1.942,3.136-3.347C193.743,67.299,183.209,60.258,173.79,55.969z"/>
		<path style="fill:#FF7B80;" d="M201.84,77.241l-20.636,11.913c-2.412,1.393-4.368,0.264-4.368-2.522l-0.001-23.828
			c0-2.786,1.956-6.173,4.368-7.566l20.636-11.913c2.413-1.393,4.368-0.264,4.368,2.522l0.001,23.828
			C206.208,72.461,204.252,75.848,201.84,77.241z"/>
		<g>
			
				<text transform="matrix(0.866 -0.5 4.000000e-05 1 184.9773 75.2277)" style="fill:#FFFFFF; font-family:'Comfortaa-Bold'; font-size:15.3974px;">JS</text>
		</g>
		
			<linearGradient id="SVGID_00000068668032615156667060000016642711191974224545_" gradientUnits="userSpaceOnUse" x1="198.0541" y1="82.089" x2="180.3801" y2="28.6686">
			<stop  offset="0" style="stop-color:#EDFAFF"/>
			<stop  offset="1" style="stop-color:#30384F;stop-opacity:0"/>
		</linearGradient>
		<path style="opacity:0.7;fill:url(#SVGID_00000068668032615156667060000016642711191974224545_);" d="M206.207,52.205l0-6.357
			c0-2.786-1.956-3.915-4.368-2.522l-20.636,11.913c-2.413,1.393-4.368,4.78-4.368,7.566l0.001,16.828
			C185.119,67.427,195.381,57.539,206.207,52.205z"/>
	</g>
	<g>
		<path style="fill:#F5D533;" d="M75.445,165.211c-0.786,1.366-1.272,2.903-1.271,4.291l0.001,23.828
			c0,2.786,5.726,6.71,8.139,5.317l18.866-13.708c1.231-0.711,2.342-1.942,3.136-3.347
			C95.398,176.541,84.864,169.499,75.445,165.211z"/>
		<path style="fill:#FBEDA7;" d="M101.179,184.938l-18.866,13.708c-2.412,1.393-8.139-2.531-8.139-5.317l-0.001-23.828
			c0-2.786,1.956-6.173,4.368-7.566l20.636-11.913c2.413-1.393,8.431,1.468,8.457,3.945l-2.088,23.405
			C105.547,180.158,103.591,183.545,101.179,184.938z"/>
		<path style="fill:#F5D533;" d="M75.445,165.211c-0.786,1.366-1.272,2.903-1.271,4.291l0.001,23.828
			c0,2.786,5.726,6.71,8.139,5.317l18.866-13.708c1.231-0.711,2.342-1.942,3.136-3.347
			C95.398,176.541,84.864,169.499,75.445,165.211z"/>
		<path style="fill:#F9E88F;" d="M75.445,165.211c-0.786,1.366-1.272,2.903-1.271,4.291l0.001,23.828
			c0,2.786,5.726,6.71,8.139,5.317l18.866-13.708c1.231-0.711,2.342-1.942,3.136-3.347
			C95.398,176.541,84.864,169.499,75.445,165.211z"/>
		<path style="fill:#F5D533;" d="M103.495,186.482l-20.636,11.913c-2.412,1.393-4.368,0.264-4.368-2.522l-0.001-23.828
			c0-2.786,1.956-6.173,4.368-7.566l20.636-11.913c2.412-1.393,4.368-0.264,4.368,2.522l0.001,23.828
			C107.863,181.702,105.908,185.09,103.495,186.482z"/>
		
			<text transform="matrix(0.866 -0.5 4.000000e-05 1 82.4945 186.7449)" style="fill:#79829D; font-family:'Comfortaa'; font-size:15.3974px;">XML</text>
		
			<linearGradient id="SVGID_00000018948628261915304610000003077825729179334040_" gradientUnits="userSpaceOnUse" x1="99.7092" y1="191.3303" x2="82.0353" y2="137.91">
			<stop  offset="0" style="stop-color:#EDFAFF"/>
			<stop  offset="1" style="stop-color:#30384F;stop-opacity:0"/>
		</linearGradient>
		<path style="opacity:0.7;fill:url(#SVGID_00000018948628261915304610000003077825729179334040_);" d="M107.863,161.446l0-6.357
			c0-2.786-1.956-3.915-4.368-2.522L82.858,164.48c-2.412,1.393-4.368,4.78-4.368,7.566l0.001,16.828
			C86.774,176.669,97.037,166.78,107.863,161.446z"/>
	</g>
	<g>
		<g>
			<path style="fill:#30384F;" d="M302.29,335.99l0.586,8.063c0,0,1.018,4.654-2.982,8.033c-4,3.379-9.979,2.097-14.359,0
				c-3.472-1.663-13.869-6.36-18.247-13.409c-1.08-1.74-3.603-5.674,1.022-8.129c2.983-1.583,9.2,0.864,13.621,1.871
				c2.707,0.617,7.1,1.296,7.1,1.296s3.93-2.642,7.909-1.002C300.919,334.353,302.572,332.689,302.29,335.99z"/>
			<path style="fill:#4F5669;" d="M285.466,327.757c0,0-1.007,8.232,6.768,9.962c7.776,1.73,13.203-0.483,14.117-4.857
				c0.566-2.712,3.192-28.174,4.789-42.43l-20.412-15.845L285.466,327.757z"/>
			<path style="fill:#4F5669;" d="M365.695,295.628c-0.965-7.162-3.638-14.03-4.453-21.185l-18.26,5.533
				c0,0-28.309-12.408-36.26-13.492c-4.577-0.624-8.553-0.843-12.769,3.012c-5.239,4.79-4.337,10.493-4.337,10.493l0.361,3.361
				l30.839,16.504c0-0.06,11.616,6.372,17.467,8.071c8.95,2.598,20.894,0.479,25.513-2.119c0.634-0.357,1.47-0.803,2.445-1.32
				C366.225,301.518,366.09,298.562,365.695,295.628z"/>
			<path style="fill:#3A4258;" d="M276.993,352.976l0.586,8.063c0,0,1.018,4.654-2.982,8.033c-4,3.379-9.979,2.097-14.359,0
				c-3.472-1.663-13.869-6.36-18.247-13.409c-1.08-1.74-3.603-5.674,1.022-8.129c2.983-1.583,9.2,0.864,13.621,1.871
				c2.707,0.617,7.1,1.296,7.1,1.296s3.93-2.642,7.909-1.002C275.622,351.339,277.274,349.675,276.993,352.976z"/>
			<g>
				<path style="fill:#30384F;" d="M368.984,397.606c-1.134-0.654-2.134-0.584-2.746,0.053l-0.061-0.086l-5.613,3.157l4.42,8.279
					l6.315-3.087c0.632-0.421,0.982-1.214,0.982-2.807C372.282,400.964,370.847,398.681,368.984,397.606z"/>
				<path style="fill:#30384F;" d="M366.183,406.817c0,2.151-1.511,3.024-3.374,1.948c-1.863-1.076-3.374-3.692-3.374-5.843
					c0-2.151,1.511-3.024,3.374-1.948C364.673,402.049,366.183,404.665,366.183,406.817z"/>
			</g>
			<g>
				<path style="fill:#30384F;" d="M300.99,399.289c1.134-0.654,2.134-0.584,2.746,0.053l0.061-0.086l5.613,3.157l-4.42,8.279
					l-6.315-3.087c-0.631-0.421-0.982-1.214-0.982-2.807C297.692,402.647,299.126,400.365,300.99,399.289z"/>
				<path style="fill:#30384F;" d="M303.79,408.501c0,2.151,1.511,3.024,3.374,1.948c1.863-1.076,3.374-3.692,3.374-5.843
					c0-2.152-1.511-3.024-3.374-1.948C305.301,403.733,303.79,406.349,303.79,408.501z"/>
			</g>
			<g>
				<path style="fill:#30384F;" d="M363.856,369.54c1.134-0.654,2.134-0.584,2.746,0.053l0.061-0.086l5.613,3.157l-4.42,8.279
					l-6.315-3.087c-0.632-0.421-0.982-1.214-0.982-2.807C360.558,372.898,361.992,370.616,363.856,369.54z"/>
				<path style="fill:#30384F;" d="M366.656,378.751c0,2.152,1.511,3.024,3.374,1.948c1.863-1.076,3.374-3.692,3.374-5.843
					c0-2.152-1.511-3.024-3.374-1.948C368.167,373.984,366.656,376.6,366.656,378.751z"/>
			</g>
			<g>
				<path style="fill:#30384F;" d="M311.17,369.54c-1.134-0.654-2.134-0.584-2.746,0.053l-0.061-0.086l-5.613,3.157l4.42,8.279
					l6.315-3.087c0.632-0.421,0.982-1.214,0.982-2.807C314.467,372.898,313.033,370.616,311.17,369.54z"/>
				<path style="fill:#30384F;" d="M308.369,378.751c0,2.152-1.511,3.024-3.374,1.948c-1.863-1.076-3.374-3.692-3.374-5.843
					c0-2.152,1.511-3.024,3.374-1.948C306.858,373.984,308.369,376.6,308.369,378.751z"/>
			</g>
			<path style="fill:#7F8492;" d="M337.27,380.078l-28.954-14.079c0,0-1.502-0.912-3.56,0.211c-2.058,1.123-2.251,2.643-2.251,2.643
				v2.058l29.872,14.968L337.27,380.078z"/>
			<path style="fill:#7F8492;" d="M333.622,381.201l30.638-15.202c0,0,1.339-0.912,3.397,0.211s2.088,2.643,2.088,2.643v2.058
				l-31.392,16.091L333.622,381.201z"/>
			<path style="fill:#454C61;" d="M341.761,389.059h-13.097v-11.876c0-3.258,2.641-5.898,5.898-5.898h1.301
				c3.257,0,5.898,2.641,5.898,5.898V389.059z"/>
			<path style="fill:#30384F;" d="M332.333,356.47v16.685c0,0,0.04,3.368,3.408,3.368c3.368,0,2.659-2.994,2.659-2.994v-17.06
				H332.333z"/>
			<path style="fill:#454C61;" d="M328.794,341.189v15.716c0,0,2.203,2.807,6.132,2.807c3.929,0,6.507-2.807,6.507-2.807v-17.962
				L328.794,341.189z"/>
			<path style="fill:#6E7484;" d="M259.326,345.97c0,0-0.979,7.998,6.576,9.679c7.555,1.681,12.828-0.469,13.715-4.719
				c0.55-2.634,3.101-27.373,4.653-41.224l-19.831-15.394L259.326,345.97z"/>
			<path style="fill:#0077CC;" d="M311.169,303.301c8.037-5.144,13.519-8.007,20.207-8.981c9.636-1.403,22.359,2.9,29.469,5.894
				c4.583,1.93,18.149,7.671,14.968,15.155c-2.263,5.325-13.378,9.168-21.517,13.097c-8.139,3.929-18.71,10.852-27.691,11.413
				c-8.981,0.561-18.804-4.21-26.943-9.542s-7.297-13.004-1.965-17.775C302.01,308.704,304.153,307.791,311.169,303.301z"/>
			<path style="fill:#6E7484;" d="M366.789,282.081l-49.105,14.881c0,0-28.309-12.408-36.26-13.492
				c-4.577-0.624-8.553-0.843-12.769,3.012c-5.239,4.79-4.337,10.493-4.337,10.493l0.361,3.361l30.839,16.504
				c0-0.06,11.616,6.372,17.467,8.071c8.95,2.598,20.894,0.479,25.513-2.119c4.619-2.599,19.63-9.816,25.405-16.168
				C369.679,300.271,366.789,282.081,366.789,282.081z"/>
			<g>
				<path style="fill:#30384F;" d="M293.405,319.859v7.858c0,0,1.352,8.045,9.771,12.536c8.419,4.49,21.537,8.232,27.899,5.8
					c6.361-2.432,30.321-14.781,35.56-17.587c5.239-2.806,7.863-4.303,8.799-6.736c0.935-2.432,0.19-9.916,0.19-9.916
					s-13.657,10.852-29.374,16.091c-15.717,5.239-21.745,8.232-29.416,6.361C309.162,332.395,293.405,319.859,293.405,319.859z"/>
				<path style="fill:#454C61;" d="M327.728,344.557c-2.328-3.726-0.792-7.837,1.722-11.053c-4.867,1.373-8.523,1.76-12.615,0.762
					c-7.671-1.871-23.43-14.407-23.43-14.407v7.858c0,0,1.352,8.045,9.771,12.536c7.812,4.166,19.668,7.685,26.417,6.229
					C328.935,345.916,328.328,345.277,327.728,344.557z"/>
			</g>
			<path style="fill:#7F8492;" d="M301.066,400.846c0,0-2.666-4.303,1.45-5.8s27.013-12.91,27.013-12.91s4.935,0.748,4.935,2.619
				c0,1.871,0.561,4.116,0.561,4.116s-24.885,11.6-27.317,12.91C305.276,403.092,303.218,402.156,301.066,400.846z"/>
			<path style="fill:#7F8492;" d="M370.972,400.846c0,0,2.105-4.303-2.011-5.8c-4.116-1.497-26.825-13.471-26.825-13.471
				s-4.747,0.748-4.747,2.619s0,4.116,0,4.116s24.697,12.162,27.129,13.471C366.95,403.092,368.82,402.156,370.972,400.846z"/>
		</g>
		<g>
			<g>
				<path style="fill:#EAECF0;" d="M219.659,411.245L219.659,411.245c-2.328,0-4.216-1.887-4.216-4.216v-95.26h8.431v95.26
					C223.875,409.358,221.987,411.245,219.659,411.245z"/>
				<path style="fill:#C8CCD7;" d="M219.425,311.769v99.452c0.079,0.004,0.154,0.024,0.234,0.024c2.328,0,4.215-1.887,4.215-4.216
					v-95.26H219.425z"/>
			</g>
			<g>
				<path style="fill:#EAECF0;" d="M131.396,358.17L131.396,358.17c-2.328,0-4.216-1.887-4.216-4.215v-95.26h8.431v95.26
					C135.611,356.283,133.724,358.17,131.396,358.17z"/>
				<path style="fill:#C8CCD7;" d="M131.161,258.694v99.452c0.079,0.004,0.154,0.024,0.234,0.024c2.328,0,4.216-1.887,4.216-4.215
					v-95.26H131.161z"/>
			</g>
			<g>
				<path style="fill:#EAECF0;" d="M387.345,310.071L387.345,310.071c-2.328,0-4.216-1.887-4.216-4.216v-95.26h8.431v95.26
					C391.56,308.184,389.673,310.071,387.345,310.071z"/>
				<path style="fill:#C8CCD7;" d="M387.111,210.596v99.452c0.079,0.004,0.154,0.024,0.234,0.024c2.328,0,4.216-1.887,4.216-4.216
					v-95.26H387.111z"/>
			</g>
			<g>
				<path style="fill:#DFE2E8;" d="M299.081,256.996L299.081,256.996c-2.328,0-4.215-1.887-4.215-4.215v-95.26h8.431v95.26
					C303.297,255.109,301.41,256.996,299.081,256.996z"/>
				<path style="fill:#D0D3DC;" d="M298.847,157.521v99.452c0.079,0.004,0.154,0.024,0.234,0.024c2.328,0,4.216-1.887,4.216-4.216
					v-95.26H298.847z"/>
			</g>
			<g>
				<polygon style="fill:#FCFCFD;" points="399.826,207.847 214.933,314.595 116.306,257.652 301.199,150.904 				"/>
				<polygon style="fill:#C0C4D1;" points="214.908,321.612 214.908,314.568 116.28,257.625 116.28,264.669 				"/>
				<polygon style="fill:#A7ADBF;" points="399.785,214.917 399.785,207.873 214.892,314.621 214.892,321.665 				"/>
			</g>
		</g>
		<g>
			<polygon style="opacity:0.3;fill:#616C8C;" points="303.843,212.974 241.136,249.808 214.752,235.998 215.371,241.526 
				241.462,253.032 304.064,216.758 			"/>
			<polygon style="fill:#B0B5C5;" points="214.752,234.998 215.371,240.526 241.462,252.032 241.136,248.808 			"/>
			<polygon style="fill:#FFFFFF;" points="279.454,198.344 303.865,212.087 241.136,248.808 214.752,234.998 			"/>
			<polygon style="fill:#9098AE;" points="303.843,211.974 241.136,248.808 241.462,252.032 304.064,215.758 			"/>
			<g>
				<polygon style="fill-rule:evenodd;clip-rule:evenodd;fill:#616C8C;" points="223.728,235.507 221.341,234.135 223.836,232.69 
					226.223,234.062 				"/>
				<polygon style="fill-rule:evenodd;clip-rule:evenodd;fill:#616C8C;" points="228.593,232.689 226.206,231.317 228.701,229.872 
					231.087,231.243 				"/>
				<polygon style="fill-rule:evenodd;clip-rule:evenodd;fill:#616C8C;" points="231.711,230.882 229.324,229.51 231.819,228.065 
					234.206,229.436 				"/>
				<polygon style="fill-rule:evenodd;clip-rule:evenodd;fill:#616C8C;" points="234.83,229.075 232.443,227.704 234.938,226.258 
					237.324,227.63 				"/>
				<polygon style="fill-rule:evenodd;clip-rule:evenodd;fill:#616C8C;" points="239.694,226.257 237.308,224.885 239.803,223.44 
					242.189,224.811 				"/>
				<polygon style="fill-rule:evenodd;clip-rule:evenodd;fill:#616C8C;" points="242.813,224.45 240.426,223.078 242.921,221.633 
					245.308,223.005 				"/>
				<polygon style="fill-rule:evenodd;clip-rule:evenodd;fill:#616C8C;" points="245.931,222.643 243.545,221.272 246.04,219.826 
					248.426,221.198 				"/>
				<polygon style="fill-rule:evenodd;clip-rule:evenodd;fill:#616C8C;" points="250.796,219.825 248.41,218.453 250.904,217.008 
					253.291,218.379 				"/>
				<polygon style="fill-rule:evenodd;clip-rule:evenodd;fill:#616C8C;" points="253.915,218.018 251.528,216.646 254.023,215.201 
					256.41,216.573 				"/>
				<polygon style="fill-rule:evenodd;clip-rule:evenodd;fill:#616C8C;" points="257.033,216.211 254.647,214.84 257.141,213.394 
					259.528,214.766 				"/>
				<polygon style="fill-rule:evenodd;clip-rule:evenodd;fill:#616C8C;" points="262.023,213.32 259.636,211.949 262.131,210.504 
					264.518,211.875 				"/>
				<polygon style="fill-rule:evenodd;clip-rule:evenodd;fill:#616C8C;" points="264.995,211.523 262.65,210.113 265.21,208.69 
					267.555,210.1 				"/>
				<polygon style="fill-rule:evenodd;clip-rule:evenodd;fill:#616C8C;" points="268.26,209.707 265.873,208.336 268.368,206.89 
					270.755,208.262 				"/>
				<polygon style="fill-rule:evenodd;clip-rule:evenodd;fill:#616C8C;" points="272.252,207.395 269.865,206.023 272.36,204.578 
					274.746,205.949 				"/>
				<polygon style="fill-rule:evenodd;clip-rule:evenodd;fill:#616C8C;" points="275.37,205.588 272.983,204.216 275.478,202.771 
					277.865,204.143 				"/>
				<polygon style="fill-rule:evenodd;clip-rule:evenodd;fill:#616C8C;" points="278.489,203.781 276.102,202.41 278.597,200.964 
					280.983,202.336 				"/>
				<polygon style="fill-rule:evenodd;clip-rule:evenodd;fill:#616C8C;" points="282.904,206.318 280.517,204.947 283.012,203.501 
					285.399,204.873 				"/>
				<polygon style="fill-rule:evenodd;clip-rule:evenodd;fill:#616C8C;" points="285.887,208.033 283.501,206.661 285.995,205.216 
					288.382,206.587 				"/>
				<polygon style="fill-rule:evenodd;clip-rule:evenodd;fill:#616C8C;" points="279.786,208.125 277.399,206.754 279.894,205.308 
					282.28,206.68 				"/>
				<polygon style="fill-rule:evenodd;clip-rule:evenodd;fill:#616C8C;" points="282.769,209.839 280.382,208.468 282.877,207.023 
					285.264,208.394 				"/>
				<polygon style="fill-rule:evenodd;clip-rule:evenodd;fill:#616C8C;" points="276.667,209.932 274.28,208.56 276.775,207.115 
					279.162,208.486 				"/>
				<polygon style="fill-rule:evenodd;clip-rule:evenodd;fill:#616C8C;" points="279.65,211.646 277.264,210.275 279.758,208.829 
					282.145,210.201 				"/>
				<polygon style="fill-rule:evenodd;clip-rule:evenodd;fill:#616C8C;" points="294.718,213.107 292.332,211.736 294.826,210.29 
					297.213,211.662 				"/>
				<polygon style="fill-rule:evenodd;clip-rule:evenodd;fill:#616C8C;" points="291.6,214.914 289.213,213.542 291.708,212.097 
					294.095,213.469 				"/>
				<polygon style="fill-rule:evenodd;clip-rule:evenodd;fill:#616C8C;" points="288.481,216.721 286.095,215.349 288.589,213.904 
					290.976,215.275 				"/>
				<polygon style="fill-rule:evenodd;clip-rule:evenodd;fill:#616C8C;" points="288.616,213.199 286.23,211.828 288.724,210.383 
					291.111,211.754 				"/>
				<polygon style="fill-rule:evenodd;clip-rule:evenodd;fill:#616C8C;" points="268.559,214.629 266.172,213.258 268.667,211.812 
					271.054,213.184 				"/>
				<polygon style="fill-rule:evenodd;clip-rule:evenodd;fill:#616C8C;" points="265.44,216.436 263.054,215.064 265.548,213.619 
					267.935,214.991 				"/>
				<polygon style="fill-rule:evenodd;clip-rule:evenodd;fill:#616C8C;" points="262.322,218.243 259.935,216.871 262.43,215.426 
					264.817,216.797 				"/>
				<polygon style="fill-rule:evenodd;clip-rule:evenodd;fill:#616C8C;" points="259.203,220.049 256.817,218.678 259.311,217.232 
					261.698,218.604 				"/>
				<polygon style="fill-rule:evenodd;clip-rule:evenodd;fill:#616C8C;" points="256.085,221.856 253.698,220.485 256.193,219.039 
					258.58,220.411 				"/>
				<polygon style="fill-rule:evenodd;clip-rule:evenodd;fill:#616C8C;" points="252.966,223.663 250.58,222.291 253.075,220.846 
					255.461,222.217 				"/>
				<polygon style="fill-rule:evenodd;clip-rule:evenodd;fill:#616C8C;" points="249.848,225.469 247.461,224.098 249.956,222.653 
					252.343,224.024 				"/>
				<polygon style="fill-rule:evenodd;clip-rule:evenodd;fill:#616C8C;" points="246.729,227.276 244.343,225.905 246.838,224.459 
					249.224,225.831 				"/>
				<polygon style="fill-rule:evenodd;clip-rule:evenodd;fill:#616C8C;" points="243.611,229.083 241.224,227.711 243.719,226.266 
					246.106,227.637 				"/>
				<polygon style="fill-rule:evenodd;clip-rule:evenodd;fill:#616C8C;" points="240.492,230.89 238.106,229.518 240.725,228.001 
					243.112,229.372 				"/>
				<polygon style="fill-rule:evenodd;clip-rule:evenodd;fill:#616C8C;" points="237.374,232.696 234.987,231.325 237.607,229.807 
					239.994,231.179 				"/>
				<polygon style="fill-rule:evenodd;clip-rule:evenodd;fill:#616C8C;" points="234.255,234.503 231.869,233.132 234.488,231.614 
					236.875,232.985 				"/>
				<polygon style="fill-rule:evenodd;clip-rule:evenodd;fill:#616C8C;" points="231.262,236.238 228.875,234.866 231.37,233.421 
					233.757,234.792 				"/>
				<polygon style="fill-rule:evenodd;clip-rule:evenodd;fill:#616C8C;" points="228.143,238.044 225.756,236.673 228.251,235.227 
					230.638,236.599 				"/>
				<polygon style="fill-rule:evenodd;clip-rule:evenodd;fill:#616C8C;" points="235.742,237.085 233.355,235.713 235.85,234.268 
					238.237,235.639 				"/>
				<polygon style="fill-rule:evenodd;clip-rule:evenodd;fill:#616C8C;" points="238.861,235.278 236.474,233.906 238.969,232.461 
					241.355,233.833 				"/>
				<polygon style="fill-rule:evenodd;clip-rule:evenodd;fill:#616C8C;" points="241.979,233.471 239.592,232.1 242.087,230.654 
					244.474,232.026 				"/>
				<polygon style="fill-rule:evenodd;clip-rule:evenodd;fill:#616C8C;" points="245.097,231.665 242.711,230.293 245.206,228.848 
					247.592,230.219 				"/>
				<polygon style="fill-rule:evenodd;clip-rule:evenodd;fill:#616C8C;" points="248.216,229.858 245.829,228.486 248.324,227.041 
					250.711,228.412 				"/>
				<polygon style="fill-rule:evenodd;clip-rule:evenodd;fill:#616C8C;" points="251.334,228.051 248.948,226.68 251.443,225.234 
					253.829,226.606 				"/>
				<polygon style="fill-rule:evenodd;clip-rule:evenodd;fill:#616C8C;" points="254.453,226.244 252.066,224.873 254.561,223.428 
					256.948,224.799 				"/>
				<polygon style="fill-rule:evenodd;clip-rule:evenodd;fill:#616C8C;" points="257.447,224.51 255.06,223.138 257.68,221.621 
					260.066,222.992 				"/>
				<polygon style="fill-rule:evenodd;clip-rule:evenodd;fill:#616C8C;" points="260.565,222.703 258.178,221.332 260.798,219.814 
					263.185,221.186 				"/>
				<polygon style="fill-rule:evenodd;clip-rule:evenodd;fill:#616C8C;" points="263.684,220.896 261.297,219.525 263.917,218.007 
					266.303,219.379 				"/>
				<polygon style="fill-rule:evenodd;clip-rule:evenodd;fill:#616C8C;" points="266.802,219.09 264.415,217.718 266.91,216.273 
					269.297,217.644 				"/>
				<polygon style="fill-rule:evenodd;clip-rule:evenodd;fill:#616C8C;" points="269.921,217.283 267.534,215.912 270.029,214.466 
					272.416,215.838 				"/>
				<polygon style="fill-rule:evenodd;clip-rule:evenodd;fill:#616C8C;" points="270.784,220.226 268.277,218.786 270.772,217.341 
					273.278,218.781 				"/>
				<polygon style="fill-rule:evenodd;clip-rule:evenodd;fill:#616C8C;" points="267.665,222.033 265.159,220.593 267.654,219.147 
					270.16,220.587 				"/>
				<polygon style="fill-rule:evenodd;clip-rule:evenodd;fill:#616C8C;" points="264.547,223.839 262.041,222.399 264.535,220.954 
					267.041,222.394 				"/>
				<polygon style="fill-rule:evenodd;clip-rule:evenodd;fill:#616C8C;" points="261.428,225.646 258.922,224.206 261.417,222.761 
					263.923,224.201 				"/>
				<polygon style="fill-rule:evenodd;clip-rule:evenodd;fill:#616C8C;" points="258.31,227.453 255.804,226.013 258.298,224.567 
					260.804,226.007 				"/>
				<polygon style="fill-rule:evenodd;clip-rule:evenodd;fill:#616C8C;" points="255.191,229.26 252.685,227.82 255.18,226.374 
					257.686,227.814 				"/>
				<polygon style="fill-rule:evenodd;clip-rule:evenodd;fill:#616C8C;" points="252.073,231.066 249.567,229.626 252.061,228.181 
					254.567,229.621 				"/>
				<polygon style="fill-rule:evenodd;clip-rule:evenodd;fill:#616C8C;" points="248.954,232.873 246.448,231.433 248.943,229.988 
					251.449,231.428 				"/>
				<polygon style="fill-rule:evenodd;clip-rule:evenodd;fill:#616C8C;" points="245.836,234.68 243.33,233.24 245.949,231.722 
					248.455,233.162 				"/>
				<polygon style="fill-rule:evenodd;clip-rule:evenodd;fill:#616C8C;" points="242.717,236.486 240.211,235.046 242.831,233.529 
					245.337,234.969 				"/>
				<polygon style="fill-rule:evenodd;clip-rule:evenodd;fill:#616C8C;" points="239.599,238.293 237.093,236.853 239.712,235.335 
					242.218,236.775 				"/>
				<polygon style="fill-rule:evenodd;clip-rule:evenodd;fill:#616C8C;" points="244.084,238.999 241.698,237.628 244.192,236.182 
					246.579,237.554 				"/>
				<polygon style="fill-rule:evenodd;clip-rule:evenodd;fill:#616C8C;" points="247.203,237.193 244.816,235.821 247.311,234.376 
					249.698,235.747 				"/>
				<polygon style="fill-rule:evenodd;clip-rule:evenodd;fill:#616C8C;" points="250.321,235.386 247.935,234.014 250.429,232.569 
					252.816,233.941 				"/>
				<polygon style="fill-rule:evenodd;clip-rule:evenodd;fill:#616C8C;" points="253.44,233.579 251.053,232.208 253.548,230.762 
					255.935,232.134 				"/>
				<polygon style="fill-rule:evenodd;clip-rule:evenodd;fill:#616C8C;" points="256.558,231.773 254.172,230.401 256.666,228.956 
					259.053,230.327 				"/>
				<polygon style="fill-rule:evenodd;clip-rule:evenodd;fill:#616C8C;" points="259.677,229.966 257.29,228.594 259.785,227.149 
					262.172,228.52 				"/>
				<polygon style="fill-rule:evenodd;clip-rule:evenodd;fill:#616C8C;" points="262.795,228.159 260.409,226.788 262.903,225.342 
					265.29,226.714 				"/>
				<polygon style="fill-rule:evenodd;clip-rule:evenodd;fill:#616C8C;" points="265.914,226.352 263.527,224.981 266.022,223.536 
					268.409,224.907 				"/>
				<polygon style="fill-rule:evenodd;clip-rule:evenodd;fill:#616C8C;" points="269.032,224.546 266.646,223.174 269.14,221.729 
					271.527,223.1 				"/>
				<polygon style="fill-rule:evenodd;clip-rule:evenodd;fill:#616C8C;" points="272.151,222.739 269.764,221.367 272.259,219.922 
					274.646,221.294 				"/>
				<polygon style="fill-rule:evenodd;clip-rule:evenodd;fill:#616C8C;" points="281.506,217.319 279.12,215.947 281.614,214.502 
					284.001,215.874 				"/>
				<polygon style="fill-rule:evenodd;clip-rule:evenodd;fill:#616C8C;" points="282.868,219.973 280.481,218.601 284.598,216.216 
					286.984,217.588 				"/>
				<polygon style="fill-rule:evenodd;clip-rule:evenodd;fill:#616C8C;" points="278.253,222.647 275.866,221.275 279.858,218.962 
					282.244,220.334 				"/>
				<polygon style="fill-rule:evenodd;clip-rule:evenodd;fill:#616C8C;" points="273.637,225.32 271.251,223.949 275.242,221.637 
					277.629,223.008 				"/>
				<polygon style="fill-rule:evenodd;clip-rule:evenodd;fill:#616C8C;" points="249.188,239.485 246.802,238.114 250.793,235.801 
					253.18,237.173 				"/>
				<polygon style="fill-rule:evenodd;clip-rule:evenodd;fill:#616C8C;" points="244.573,242.159 242.186,240.788 246.178,238.475 
					248.565,239.846 				"/>
				<polygon style="fill-rule:evenodd;clip-rule:evenodd;fill:#616C8C;" points="239.958,244.833 237.571,243.462 241.563,241.149 
					243.949,242.52 				"/>
				<polygon style="fill-rule:evenodd;clip-rule:evenodd;fill:#616C8C;" points="275.269,220.932 272.883,219.561 278.371,216.381 
					280.758,217.753 				"/>
				<polygon style="fill-rule:evenodd;clip-rule:evenodd;fill:#616C8C;" points="271.677,212.822 269.291,211.451 272.783,209.428 
					275.17,210.799 				"/>
				<polygon style="fill-rule:evenodd;clip-rule:evenodd;fill:#616C8C;" points="231.127,239.758 228.74,238.387 232.732,236.074 
					235.118,237.446 				"/>
				<polygon style="fill-rule:evenodd;clip-rule:evenodd;fill:#616C8C;" points="236.974,243.119 234.587,241.747 241.074,237.989 
					243.461,239.361 				"/>
				<polygon style="fill-rule:evenodd;clip-rule:evenodd;fill:#616C8C;" points="234.11,241.473 231.604,240.033 236.594,237.142 
					239.1,238.582 				"/>
				<polygon style="fill-rule:evenodd;clip-rule:evenodd;fill:#616C8C;" points="253.804,236.811 251.417,235.44 270.627,224.31 
					273.014,225.682 				"/>
				<path style="fill-rule:evenodd;clip-rule:evenodd;fill:#616C8C;" d="M273.783,218.351l-2.387-1.371l1.701-0.986
					c0.157-0.091,0.129-0.183,0.101-0.294c-0.006-0.018-0.122-0.016-0.122-0.025l0-0.01c-0.003-0.053,0.066-0.087,0.004-0.126
					l-2.457-1.449l5.115-2.947l5.266,3.017L273.783,218.351z"/>
			</g>
		</g>
		<g>
			<path style="opacity:0.3;fill:#616C8C;" d="M229.242,235.172c0,0,3,1.448,3.621,3.104c0.621,1.655,2.276,4.241,4.862,5.586
				c2.586,1.345,4.862,1.655,4.862,1.655s2.483,2.173,4.345,3.517s23.586,13.759,27.517,15.103
				c3.931,1.345,14.172,1.448,20.483,0.207c6.31-1.241,12.207-3.31,12.207-3.31s-0.104-5.172-6.31-7.241
				c-6.207-2.069-25.138-3.207-27.724-4.862c-2.586-1.655-25.138-10.759-25.138-10.759s-14.897-9.31-16.552-8.069
				C229.76,231.345,229.242,235.172,229.242,235.172z"/>
			<path style="opacity:0.3;fill:#616C8C;" d="M272.898,208.276c0,0,0.931,1.138,3.207,1.862c2.276,0.724,3.414,0.828,3.724,2.069
				c0.31,1.241-6.207,0.828-6.207,0.828s0.517,1.345,2.069,1.759c1.552,0.414,2.379,1.345,3.621,2.276
				c1.241,0.931,4.241,1.655,5.586,1.552c1.345-0.104,2.414,0.31,2.414,0.31l0.345,1.862l26.414,12.414l5.276-3.931
				c0,0-14.793-12.31-20.379-13.448c-5.586-1.138-15-6-15.517-6.207c-0.517-0.207-7.572-4.445-8.079-4.033
				C274.863,206,272.898,208.276,272.898,208.276z"/>
			<path style="fill:#4D4D4D;" d="M336.147,301.898c-3.929-6.736-3.368-15.155,0.561-20.768
				c8.42-10.665,21.891-11.787,33.117-19.084c2.369-1.421,6.329-2.033,8.184-0.167c-0.974-4.676-3.394-5.549-5.003-5.633
				c-3.555-0.187-6.289,2.194-19.272,8.607c-15.529,7.671-18.149,6.923-21.704,9.916c-3.555,2.994-5.613,10.103-5.052,17.775
				c0.561,7.671,6.174,13.845,10.665,13.658c1.078-0.045,2.026-0.21,3.049-0.52C338.666,304.978,336.987,303.578,336.147,301.898z"
				/>
			<path style="fill:#333333;" d="M369.826,262.045c-11.226,7.297-24.697,8.42-33.117,19.084c-3.929,5.613-4.49,14.033-0.561,20.768
				c0.84,1.68,2.518,3.08,4.546,3.783c3.241-0.983,7.233-3.438,18.467-8.274c8.616-3.708,13.195-6.919,15.717-11.6
				c1.805-3.35,2.478-7.353,3.181-13.284c0.572-4.83,0.452-8.239-0.049-10.644C376.154,260.012,372.195,260.624,369.826,262.045z"/>
			<g>
				<path style="fill:#FFC1C3;" d="M292.195,214.559c0,0-3.714-7.869-5.333-8.976c-1.619-1.107-5.533-1.1-8.186-1.357
					c-2-0.194-6.17,0.701-6.443,2.477c-0.274,1.776,1.068,2.077,2.843,2.672c1.775,0.595,4.262,1.118,5.046,1.758
					c0.784,0.64,0.676,1.757-0.708,1.482c-1.383-0.275-3.356-1.735-4.947-1.325c-1.253,0.323-1.536,2.222,1.126,2.929
					c2.662,0.707,1.987,1.32,3.609,2.042c1.622,0.721,3.629,1.984,5.465,1.799c2.136-0.216,6.362,2.731,6.362,2.731l5.196-4.149
					L292.195,214.559z"/>
				<path style="fill:#3FA9F5;" d="M348.702,212.733l-21.663,5.27l-27.938-6.849c0,0-5.613-2.292-9.823,2.479
					c-3.341,4.838-1.819,6.478-1.819,6.478l36.527,16.302c0,0,5.179,3.013,13.826,1.614c7.963-1.288,31.5,4.684,31.5,4.684
					s3.024-9.47-1.639-19.907C362.754,211.796,352.07,211.236,348.702,212.733z"/>
				<path style="fill:#69BCF7;" d="M343.081,212.85c0,0-14.989,3.396-24.122,10.422c-7.974,6.134-12.705,20.384-11.944,45.669
					c0.53,17.615-0.386,18.102,0.703,23.888c0.67,3.564,3.963,8.813,9.134,11.476c6.137,3.16,11.766,5.609,20.375,3.747
					c8.665-1.874,28.104-11.71,28.104-11.71s5.931-13.248,5.931-19.983c0-6.736,0.986-31.197-1.715-43.25
					C364.979,212.733,349.171,211.503,343.081,212.85z"/>
				<path style="fill:#FFC1C3;" d="M345.037,204.851l1.524,13.92c0,0-0.508,5.69-8.546,7.106c-8.242,1.452-9.768-4.14-9.768-4.14
					l0.207-3.331l-1.064-7.664L345.037,204.851z"/>
				<path style="fill:#FFC1C3;" d="M313.592,179.47c0,0-1.505,14.459-1.258,19.284c0.225,4.391,2.238,13.231,8.367,15.469
					c5.095,1.86,11.119-1.31,17.415-5.74c6.296-4.43,8.31-5.512,9.242-9.243s7.339-21.636,7.339-21.636L313.592,179.47z"/>
				<path style="fill:#30384F;" d="M355.336,174.918c-1.167-6.032-4.937-10.134-8.951-12.259
					c-7.928-4.197-15.858-3.989-23.058-1.751c-6.783,2.108-10.013,5.239-11.383,7.978c-0.749,1.499-1.14,2.883-1.293,4.135
					c-0.031,1.759,0.332,3.514,1.153,5.117c1.158,2.258,3.349,3.753,4.959,5.66c1.308,1.549,2.11,3.287,2.314,5.313
					c0.182,1.805,0.316,3.808,0.2,5.74l2.16,0.785c0,0-0.408-5.176,2.565-5.557c4.547-0.583,4.879,5.992,4.197,7.928
					c-2.915,8.278,1.548,9.794,1.548,9.794c5.183,2.129,10.705,2.679,15.403-0.791c3.898-2.879,6.609-7.184,8.187-11.716
					C355.507,189.073,356.589,181.392,355.336,174.918z"/>
				<path style="fill:#FFC1C3;" d="M248.056,246.89l-5.114-2.727c0,0-1.516,1.043-4.743-0.781c-3.869-2.187-3.683-4.319-5.192-5.613
					c-1.964-1.684-3.059-2.069-5.052-3.508c-2.301-1.662,0.14-5.894,3.648-6.034c1.136-0.046,2.779,0.045,6.174,1.403
					c2.105,0.842,4.866,3.837,4.866,3.837s-1.577-2.534-2.34-3.276c-0.763-0.742,0.295-2.349,1.829-1.071
					c1.534,1.278,3.879,4.298,3.963,5.369s1.278,4.219,1.278,4.219l4.858,2.813L248.056,246.89z"/>
				<path style="fill:#3FA9F5;" d="M312.753,230.064L281.14,246.89l-27.756-10.971c0,0-5.431-2.836-9.43,3.534
					c-2.045,3.258-0.289,6.654-0.289,6.654s23.88,14.626,32.236,17.249c4.133,1.297,8.568,1.755,17.297,1.019
					c9.719-0.82,17.548-4.335,24.005-7.612c4.456-2.261,10.215-9.383,8.467-18.105C323.877,229.712,318.366,227.818,312.753,230.064
					z"/>
			</g>
			<path style="fill:#0077CC;" d="M350.18,260.735c-8.514,3.275-17.4,6.736-20.768,7.671c-3.368,0.936-7.484,7.858-7.11,15.716
				c0.374,7.858,1.684,14.781,4.677,17.588c2.994,2.807,8.42,5.8,17.026,1.684c8.607-4.116,20.394-9.168,23.762-11.6
				c3.368-2.432,6.475-5.391,7.671-8.981c1.31-3.929,2.619-11.974,2.245-19.646c-0.34-6.977-4.303-13.471-10.852-10.478
				C360.284,255.684,357.477,257.929,350.18,260.735z"/>
			<path style="fill:#30384F;" d="M332.031,274.768c3.555-2.994,6.174-2.245,21.704-9.916c12.982-6.413,15.717-8.794,19.271-8.607
				c2.436,0.128,6.736,2.058,5.052,16.278c-0.702,5.931-1.376,9.935-3.181,13.284c-2.522,4.681-7.101,7.892-15.717,11.6
				c-14.781,6.362-17.026,8.607-21.517,8.794c-4.49,0.187-10.103-5.987-10.665-13.658
				C326.418,284.871,328.476,277.762,332.031,274.768z"/>
			<g>
				<path style="fill:#596072;" d="M353.354,282.158l9.017-4.567c0,0,2.435-1.479,4.63,5.986c0.845,2.873,0.594,11.415,0.615,20.405
					c0.033,14.365-0.061,30.417-0.061,30.417l-9.017,4.567c0,0-0.618-5.87-0.67-13.418
					C357.762,310.048,357.644,286.145,353.354,282.158z"/>
				<path style="fill:#454C61;" d="M353.354,282.158l-0.036,47.617l-4.807-1.497v5.987l10.028,4.699v-46.781
					c0,0-0.217-4.593-2.077-7.553C353.344,279.669,353.354,282.158,353.354,282.158z"/>
			</g>
		</g>
	</g>
	<g style="opacity:0.8;">
		<polygon style="fill:#75C1F8;" points="174.358,206.87 104.363,248.184 103.519,247.765 103.517,196.643 174.356,155.748 
			175.181,156.17 		"/>
		<g>
			<g>
				<polygon style="fill:#FFFFFF;" points="175.199,207.283 104.361,248.178 104.359,197.056 175.197,156.161 				"/>
				<polygon style="fill:#3FA9F5;" points="175.197,161.091 104.36,201.986 104.359,197.056 175.197,156.161 				"/>
			</g>
			<polygon style="fill:#898E9B;" points="138.422,190.314 110.836,206.239 110.836,205.139 138.422,189.214 			"/>
			<polygon style="fill:#898E9B;" points="138.422,195.056 110.836,210.982 110.836,209.882 138.422,193.956 			"/>
			<polygon style="fill:#898E9B;" points="138.422,199.798 110.836,215.724 110.836,214.624 138.422,198.699 			"/>
			<polygon style="fill:#898E9B;" points="138.423,204.541 110.836,220.467 110.836,219.367 138.423,203.441 			"/>
			<polygon style="fill:#898E9B;" points="138.423,209.283 110.836,225.209 110.836,224.109 138.423,208.184 			"/>
			<polygon style="fill:#A9D8FA;" points="169.047,202.705 145.895,216.072 145.893,183.649 169.046,170.283 			"/>
			<polygon style="fill:#898E9B;" points="138.423,214.026 110.837,229.952 110.837,228.852 138.423,212.926 			"/>
		</g>
	</g>
	<g>
		<path style="opacity:0.3;fill:#616C8C;" d="M203.008,215.605l0.001,0.111l0.019,0.011c0.084,0.335,0.339,0.658,0.785,0.915
			l13.936,8.046c0.574,0.331,1.334,0.485,2.086,0.47l0,0c0.001,0,0.001,0,0.002,0c0.341-0.007,0.679-0.048,0.998-0.126
			c0.034-0.008,0.066-0.021,0.099-0.03c0.124-0.034,0.247-0.068,0.363-0.113c0.15-0.058,0.294-0.124,0.426-0.201l37.879-21.871
			c0.27-0.156,0.466-0.337,0.603-0.53c0.016-0.022,0.03-0.043,0.044-0.065c0.069-0.111,0.125-0.223,0.152-0.339
			c0.004-0.018-0.001-0.035,0.002-0.053c0.017-0.091,0.021-0.171,0.021-0.232c0-0.242-0.044-2.876-0.044-2.876l-2.137,1.015
			l-12.577-7.262c-1.098-0.634-2.877-0.634-3.975,0l-27.983,16.157l0,0l-7.98,4.608c-0.014-0.016-0.027-0.035-0.042-0.05
			c-0.746-0.747-2.701-0.22-2.701-0.22l0.019,2.423C202.999,215.465,203,215.535,203.008,215.605z"/>
		<g>
			<path style="fill:#B0B5C5;" d="M267.933,102.367c0,0-1.054-0.878-1.757-1.288c-0.449-0.262-0.762-0.424-0.973-0.524
				c-0.046-0.029-0.097-0.046-0.147-0.068c-0.134-0.06-0.198-0.081-0.198-0.081l-0.003,0.006c-0.375-0.085-0.83-0.002-1.322,0.282
				l-80.834,46.665c-1.281,0.739-2.319,2.538-2.319,4.016l0.002,59.196c0,0.728,0.254,1.24,0.662,1.487l-0.001,0.002
				c0,0,2.254,1.815,2.927,1.786c0.673-0.029,0.673-2.342,0.673-2.342l-0.189-0.606l79.079-45.653
				c1.281-0.739,2.319-2.538,2.319-4.016l-0.002-53.55c0.06-0.037,0.119-0.078,0.176-0.129
				C267.113,106.582,267.933,102.367,267.933,102.367z"/>
			<path style="fill:#F3F3F4;" d="M265.854,114.324l0-6.647c0.06-0.037,0.119-0.078,0.176-0.129
				c1.083-0.966,1.903-5.182,1.903-5.182s-1.054-0.878-1.757-1.288c-0.449-0.262-0.762-0.424-0.973-0.524
				c-0.046-0.029-0.097-0.046-0.147-0.068c-0.134-0.06-0.198-0.081-0.198-0.081l-0.003,0.006c-0.375-0.085-0.83-0.002-1.322,0.282
				l-80.834,46.665c-0.63,0.364-1.199,0.985-1.617,1.696l9.535,6.3l75.178-40.985C265.796,114.37,265.82,114.351,265.854,114.324z"
				/>
			<path style="fill:#A7ADBF;" d="M260.401,200.884c0.004-0.018-0.001-0.035,0.002-0.053c0.017-0.09,0.021-0.171,0.021-0.232
				c0-0.242-0.044-2.876-0.044-2.876l-2.136,1.015l-12.577-7.262c-1.098-0.634-2.877-0.634-3.975,0l-35.963,20.765
				c-0.014-0.016-0.027-0.035-0.041-0.05c-0.747-0.746-2.701-0.22-2.701-0.22l0.019,2.423c-0.007,0.07-0.007,0.14,0.002,0.21
				l0.001,0.111l0.019,0.011c0.084,0.335,0.339,0.658,0.785,0.915l13.936,8.046c1.098,0.634,2.877,0.634,3.975,0l37.879-21.871
				c0.27-0.156,0.466-0.337,0.603-0.53c0.016-0.022,0.03-0.043,0.044-0.065C260.319,201.112,260.375,200.999,260.401,200.884z"/>
			<path style="fill:#8189A3;" d="M260.38,197.722l-2.136,1.015l-12.577-7.262c-1.098-0.634-2.877-0.634-3.975,0l-27.983,16.158
				l6.126,8.495v8.03c0.686-0.014,1.365-0.168,1.889-0.47l37.879-21.871c0.27-0.156,0.466-0.337,0.603-0.53
				c0.016-0.022,0.03-0.043,0.044-0.065c0.069-0.111,0.125-0.223,0.152-0.339c0.004-0.018-0.001-0.035,0.002-0.053
				c0.017-0.09,0.021-0.171,0.021-0.232C260.424,200.357,260.38,197.722,260.38,197.722z"/>
			<path style="fill:#E2E3E6;" d="M259.603,199.27l-37.879,21.871c-1.098,0.634-2.877,0.634-3.975,0l-13.936-8.046
				c-1.098-0.634-1.098-1.661,0-2.295l37.879-21.871c1.098-0.634,2.877-0.634,3.975,0l13.935,8.046
				C260.7,197.609,260.7,198.637,259.603,199.27z"/>
			<g>
				<polygon style="fill:#8189A3;" points="236.83,202.282 226.739,208.107 226.738,186.442 236.83,180.616 				"/>
				<polygon style="fill:#A7ADBF;" points="226.749,207.88 223.24,205.854 223.241,184.189 226.75,186.214 				"/>
			</g>
			<g>
				<g>
					
						<linearGradient id="SVGID_00000052786856515080374520000003621505924786615214_" gradientUnits="userSpaceOnUse" x1="215.1111" y1="93.5584" x2="230.8353" y2="189.5583">
						<stop  offset="0" style="stop-color:#3FA9F5"/>
						<stop  offset="1" style="stop-color:#65D8FF"/>
					</linearGradient>
					<polygon style="fill:url(#SVGID_00000052786856515080374520000003621505924786615214_);" points="265.09,163.691 
						186.244,209.209 186.242,152.307 265.088,106.789 					"/>
					
						<text transform="matrix(0.866 -0.5 4.000000e-05 1 200.5807 177.2845)" style="fill:#FFFFFF; font-family:'Comfortaa-Bold'; font-size:10.8099px; letter-spacing:2;">{.CODE};</text>
				</g>
				<polygon style="fill:#F3F3F4;" points="265.153,163.644 186.31,209.168 185.647,208.786 264.49,163.262 				"/>
				<polygon style="fill:#9FA5B9;" points="265.305,163.745 264.477,163.266 264.479,106.365 265.307,106.843 				"/>
				<path style="fill:#D0D3DC;" d="M268.401,103.73c0-1.479-1.038-2.078-2.319-1.339l-80.834,46.665
					c-1.281,0.739-2.319,2.538-2.319,4.016l0.002,59.196c0,1.479,1.038,2.078,2.319,1.339l80.834-46.665
					c1.281-0.739,2.319-2.537,2.319-4.016L268.401,103.73z M186.244,209.208l-0.002-56.901l78.846-45.518l0.002,56.901
					L186.244,209.208z"/>
			</g>
		</g>
	</g>
	<g style="opacity:0.8;">
		<polygon style="fill:#454C61;" points="323.786,153.482 253.791,194.796 252.948,194.377 252.946,143.255 323.784,102.36 
			324.61,102.783 		"/>
		<g>
			<polygon style="fill:#30384F;" points="324.628,153.903 253.79,194.798 253.788,143.676 324.626,102.781 			"/>
			<g>
				<polygon style="fill:#FFFFFF;" points="260.439,149.27 258.468,150.407 258.468,148.796 260.438,147.658 				"/>
				<polygon style="fill:#3FA9F5;" points="289.257,132.633 262.635,148.002 262.635,146.39 289.257,131.021 				"/>
				<polygon style="fill:#FFFFFF;" points="260.439,153.05 258.468,154.188 258.468,152.576 260.439,151.438 				"/>
				<polygon style="fill:#3FA9F5;" points="274.93,144.684 262.635,151.782 262.635,150.17 274.93,143.072 				"/>
				<polygon style="fill:#FFFFFF;" points="260.439,156.83 258.468,157.968 258.468,156.356 260.439,155.219 				"/>
				<polygon style="fill:#3FA9F5;" points="281.293,144.791 262.635,155.562 262.635,153.951 281.293,143.179 				"/>
				<polygon style="fill:#FFFFFF;" points="260.439,160.61 258.468,161.748 258.468,160.136 260.439,158.999 				"/>
				<polygon style="fill:#3FA9F5;" points="284.906,146.486 262.635,159.342 262.635,157.731 284.906,144.874 				"/>
			</g>
			<g>
				<polygon style="fill:#FFFFFF;" points="260.439,166.109 258.469,167.247 258.469,165.635 260.439,164.497 				"/>
				<polygon style="fill:#F5D533;" points="276.737,156.7 262.635,164.841 262.635,163.229 276.737,155.089 				"/>
				<polygon style="fill:#FFFFFF;" points="260.439,169.889 258.469,171.027 258.469,169.415 260.439,168.277 				"/>
				<polygon style="fill:#F5D533;" points="288.518,153.679 262.636,168.621 262.635,167.01 288.518,152.067 				"/>
				<polygon style="fill:#FFFFFF;" points="260.439,173.669 258.469,174.807 258.469,173.195 260.439,172.058 				"/>
				<polygon style="fill:#F5D533;" points="272.837,166.512 262.636,172.402 262.636,170.79 272.837,164.901 				"/>
				<polygon style="fill:#FFFFFF;" points="260.44,177.45 258.469,178.587 258.469,176.975 260.44,175.838 				"/>
				<polygon style="fill:#F5D533;" points="280.883,165.648 262.636,176.182 262.636,174.57 280.883,164.036 				"/>
			</g>
			<g>
				<polygon style="fill:#FFFFFF;" points="302.393,124.667 303.896,123.799 303.896,122.57 302.393,123.438 				"/>
				<polygon style="fill:#FFFFFF;" points="316.022,115.57 305.571,121.603 305.571,122.832 316.022,116.799 				"/>
				<polygon style="fill:#FFFFFF;" points="302.393,127.55 303.896,126.682 303.896,125.453 302.393,126.321 				"/>
				<polygon style="fill:#FFFFFF;" points="310.398,121.7 305.571,124.486 305.571,125.715 310.398,122.929 				"/>
				<polygon style="fill:#FFFFFF;" points="302.393,130.433 303.896,129.565 303.896,128.336 302.393,129.204 				"/>
				<polygon style="fill:#FFFFFF;" points="312.896,123.141 305.571,127.369 305.571,128.598 312.896,124.37 				"/>
				<polygon style="fill:#FFFFFF;" points="302.393,133.316 303.896,132.448 303.896,131.219 302.393,132.087 				"/>
				<polygon style="fill:#FFFFFF;" points="314.314,125.205 305.571,130.252 305.571,131.481 314.314,126.434 				"/>
				<polygon style="fill:#FFFFFF;" points="302.394,137.51 303.896,136.642 303.896,135.413 302.393,136.28 				"/>
				<polygon style="fill:#FFFFFF;" points="312.383,130.513 305.571,134.446 305.571,135.675 312.384,131.742 				"/>
				<polygon style="fill:#FFFFFF;" points="302.394,140.393 303.896,139.525 303.896,138.296 302.394,139.163 				"/>
				<polygon style="fill:#FFFFFF;" points="305.572,137.329 305.572,138.558 318.075,131.34 318.075,130.11 				"/>
				<polygon style="fill:#FFFFFF;" points="302.394,143.276 303.897,142.408 303.897,141.179 302.394,142.046 				"/>
				<polygon style="fill:#FFFFFF;" points="310.5,137.367 305.572,140.212 305.572,141.441 310.5,138.596 				"/>
				<polygon style="fill:#FFFFFF;" points="302.394,146.159 303.897,145.291 303.897,144.062 302.394,144.93 				"/>
				<polygon style="fill:#FFFFFF;" points="305.572,144.324 314.387,139.235 314.387,138.006 305.572,143.095 				"/>
			</g>
		</g>
	</g>
	<g>
		<path style="opacity:0.3;fill:#878FA8;" d="M236.587,264.892l-36.334-20.086c-1.34-0.773-3.512-0.773-4.851,0l-23.806,12.909
			c-1.34,0.773-1.121,2.738,0.219,3.511l36.05,20.816c1.34,0.773,3.512,0.773,4.851,0l23.588-13.62
			C237.644,267.65,237.927,265.666,236.587,264.892z"/>
		<g>
			<path style="fill:#626879;" d="M236.304,267.423l-23.588,13.62c-1.34,0.773-3.512,0.773-4.851,0l-36.05-20.816
				c-1.34-0.773-1.558-2.738-0.219-3.511l23.806-12.909c1.34-0.774,3.512-0.774,4.851,0l36.334,20.086
				C237.927,264.666,237.644,266.65,236.304,267.423z"/>
			<g>
				<path style="fill:#CBCED9;" d="M236.304,266.423l-23.588,13.62c-1.34,0.773-3.512,0.773-4.851,0l-36.05-20.816
					c-1.34-0.773-1.34-2.028,0-2.801l23.588-13.619c1.34-0.774,3.512-0.774,4.851,0l36.051,20.816
					C237.644,264.396,237.644,265.65,236.304,266.423z"/>
				<polygon style="opacity:0.6;fill:#0077CC;" points="208.785,277.773 174.24,257.826 197.828,244.207 232.373,264.153 				"/>
				
					<linearGradient id="SVGID_00000047766320695116127580000016612241721761066165_" gradientUnits="userSpaceOnUse" x1="501.716" y1="116.2093" x2="533.6334" y2="205.8236" gradientTransform="matrix(0.7071 -0.7071 0.7071 0.7071 -294.6273 504.0703)">
					<stop  offset="0" style="stop-color:#30384F;stop-opacity:0"/>
					<stop  offset="1" style="stop-color:#EDFAFF"/>
				</linearGradient>
				<path style="fill:url(#SVGID_00000047766320695116127580000016612241721761066165_);" d="M212.962,252.945l-15.134-8.739
					l-23.588,13.619l23.787,13.735c0.042-0.211,0.083-0.422,0.135-0.634C200.01,264.258,204.678,257.389,212.962,252.945z"/>
				<path style="fill:#666C7D;" d="M223.507,271.494c0.554,0.32,0.554,0.839,0,1.159c-0.554,0.32-1.453,0.32-2.007,0
					s-0.554-0.839,0-1.159S222.952,271.174,223.507,271.494z"/>
			</g>
		</g>
	</g>
	<g>
		<path style="opacity:0.3;fill:#616C8C;" d="M307.897,202.513L307.897,202.513c-0.001-0.002-0.001-0.005-0.002-0.007
			c-0.096-0.465-0.246-0.976-0.44-1.512c-0.024-0.067-0.047-0.133-0.072-0.201c-0.049-0.131-0.104-0.263-0.158-0.397
			c-0.036-0.087-0.072-0.174-0.11-0.262c-0.054-0.125-0.111-0.251-0.169-0.378c-0.046-0.099-0.093-0.199-0.142-0.298
			c-0.059-0.121-0.118-0.242-0.181-0.363c-0.056-0.109-0.116-0.219-0.175-0.329c-0.062-0.114-0.123-0.227-0.188-0.34
			c-0.074-0.13-0.153-0.259-0.232-0.388c-0.057-0.093-0.111-0.188-0.17-0.28c-0.138-0.217-0.281-0.433-0.43-0.645
			c-0.046-0.066-0.096-0.129-0.143-0.194c-0.11-0.152-0.221-0.304-0.337-0.452c-0.063-0.081-0.129-0.159-0.194-0.239
			c-0.105-0.13-0.212-0.258-0.322-0.384c-0.07-0.081-0.142-0.159-0.214-0.238c-0.11-0.12-0.222-0.238-0.336-0.353
			c-0.075-0.076-0.15-0.15-0.227-0.224c-0.118-0.114-0.239-0.223-0.362-0.331c-0.075-0.066-0.15-0.134-0.227-0.198
			c-0.135-0.113-0.274-0.219-0.414-0.324c-0.067-0.051-0.133-0.104-0.202-0.152c-0.21-0.148-0.423-0.289-0.641-0.416
			c-0.833-0.486-1.597-0.881-2.323-1.204c-0.003-0.004-0.006-0.007-0.009-0.01c-0.028-0.012-0.054-0.021-0.082-0.033
			c-0.159-0.069-0.313-0.128-0.468-0.189c-0.201-0.08-0.401-0.154-0.596-0.219c-0.083-0.028-0.172-0.068-0.254-0.094
			c-0.067-0.02-0.129-0.028-0.195-0.046c-0.209-0.059-0.414-0.105-0.618-0.146c-0.121-0.024-0.245-0.056-0.364-0.074
			c-0.308-0.047-0.611-0.072-0.911-0.074c-0.021,0-0.042-0.005-0.063-0.005c-0.072,0-0.143,0.017-0.215,0.02
			c-0.223,0.009-0.445,0.027-0.665,0.062c-0.11,0.017-0.221,0.041-0.331,0.065c-0.214,0.046-0.428,0.107-0.642,0.178
			c-0.098,0.033-0.197,0.062-0.295,0.101c-0.309,0.12-0.619,0.259-0.933,0.433c-0.243,0.135-0.477,0.283-0.704,0.437
			c-0.049,0.033-0.097,0.066-0.145,0.099c-0.019,0.014-0.04,0.026-0.059,0.04c-0.012,0.009-0.026,0.017-0.038,0.026
			c-0.191,0.138-0.374,0.282-0.55,0.433c-0.015,0.013-0.028,0.026-0.043,0.039c-0.076,0.066-0.151,0.134-0.224,0.203
			c-0.005,0.004-0.01,0.009-0.015,0.013c-0.116,0.109-0.227,0.222-0.335,0.338c-0.019,0.021-0.04,0.041-0.059,0.061
			c-0.191,0.208-0.367,0.425-0.529,0.651c-0.005,0.008-0.01,0.015-0.015,0.023c-1.042,1.47-1.284,3.209-0.534,5.271
			c0,0,6.65,5.309,10.669,6.546c4.018,1.236,7.766-0.425,7.766-2.898C308.032,203.321,307.984,202.935,307.897,202.513z"/>
		<g>
			<path style="fill:#C6CAD6;" d="M289.143,199.538c0,0,6.8,5.216,10.818,6.452s7.766-0.425,7.766-2.898
				c0-2.473-2.511-7.882-6.221-10.046s-6.182-2.782-8.964-1.236C289.761,193.356,287.906,196.138,289.143,199.538z"/>
			<path style="fill:#616C8C;" d="M292.543,191.811c-2.179,1.21-3.781,3.181-3.783,5.612c0.015,0.045,0.025,0.09,0.042,0.135
				c0,0,6.925,5.312,11.017,6.571c3.654,1.124,7.079-0.107,7.773-2.175c-0.562-2.727-2.873-7.032-6.085-8.906
				C297.797,190.884,295.325,190.265,292.543,191.811z"/>
			<path style="fill:#FFFFFF;" d="M292.543,191.811c-1.306,0.725-2.401,1.726-3.072,2.933c0.877,0.443,1.719,0.809,2.466,1.039
				c3.654,1.124,7.079-0.107,7.773-2.175c0.251-0.947,0.019-1.179-0.535-1.775C296.671,190.72,294.698,190.613,292.543,191.811z"/>
			<path style="fill:#84C8F9;" d="M295.634,192.043c1.057,0.632,1.684,1.867,1.42,2.025c-0.264,0.158-1.335-0.226-2.391-0.859
				c-1.057-0.632-1.699-1.273-1.435-1.431C293.491,191.62,294.577,191.411,295.634,192.043z"/>
		</g>
	</g>
	<g>
		<path style="fill:#FFBCBE;" d="M149.041,226.042l-18.866,13.708c-2.412,1.393-8.139-2.531-8.139-5.317l-0.001-23.828
			c0-2.786,1.956-6.173,4.368-7.566l20.636-11.913c2.413-1.393,8.431,1.468,8.457,3.945l-2.088,23.405
			C153.409,221.262,151.453,224.649,149.041,226.042z"/>
		<path style="fill:#FF6469;" d="M123.307,206.314c-0.786,1.366-1.271,2.903-1.271,4.291l0.001,23.828
			c0,2.786,5.726,6.71,8.139,5.317l18.866-13.708c1.231-0.711,2.342-1.942,3.136-3.347
			C143.26,217.644,132.726,210.603,123.307,206.314z"/>
		<path style="fill:#FFAAAC;" d="M123.307,206.314c-0.786,1.366-1.271,2.903-1.271,4.291l0.001,23.828
			c0,2.786,5.726,6.71,8.139,5.317l18.866-13.708c1.231-0.711,2.342-1.942,3.136-3.347
			C143.26,217.644,132.726,210.603,123.307,206.314z"/>
		<path style="fill:#FF7B80;" d="M151.357,227.586l-20.636,11.913c-2.412,1.393-4.368,0.264-4.368-2.522l-0.001-23.828
			c0-2.786,1.955-6.173,4.368-7.566l20.636-11.913c2.412-1.393,4.368-0.263,4.368,2.522l0.001,23.828
			C155.725,222.806,153.77,226.193,151.357,227.586z"/>
		<g>
			
				<text transform="matrix(0.866 -0.5 4.000000e-05 1 130.7704 227.2277)" style="fill:#FFFFFF; font-family:'Comfortaa-Bold'; font-size:15.3974px;">C++</text>
		</g>
		
			<linearGradient id="SVGID_00000166642546873144702120000013513934355368605605_" gradientUnits="userSpaceOnUse" x1="147.5713" y1="232.4338" x2="129.8974" y2="179.0134">
			<stop  offset="0" style="stop-color:#EDFAFF"/>
			<stop  offset="1" style="stop-color:#30384F;stop-opacity:0"/>
		</linearGradient>
		<path style="opacity:0.7;fill:url(#SVGID_00000166642546873144702120000013513934355368605605_);" d="M155.725,202.55l0-6.357
			c0-2.786-1.956-3.915-4.368-2.522l-20.636,11.913c-2.413,1.393-4.368,4.78-4.368,7.566l0.001,16.828
			C134.636,217.772,144.899,207.883,155.725,202.55z"/>
	</g>
	<g>
		<path style="fill:#B4ECFF;" d="M310.42,124.524l-18.866,13.708c-2.412,1.393-8.139-2.531-8.139-5.317l-0.001-23.828
			c0-2.786,1.956-6.173,4.368-7.566l20.636-11.913c2.412-1.393,8.431,1.468,8.457,3.945l-2.088,23.405
			C314.788,119.744,312.833,123.132,310.42,124.524z"/>
		<path style="fill:#3FA9F5;" d="M284.686,104.797c-0.786,1.366-1.272,2.903-1.272,4.291l0.001,23.828
			c0,2.786,5.726,6.71,8.139,5.317l18.866-13.708c1.231-0.711,2.342-1.942,3.136-3.347
			C304.64,116.127,294.105,109.086,284.686,104.797z"/>
		<path style="fill:#3FA9F5;" d="M284.686,104.797c-0.786,1.366-1.272,2.903-1.272,4.291l0.001,23.828
			c0,2.786,5.726,6.71,8.139,5.317l18.866-13.708c1.231-0.711,2.342-1.942,3.136-3.347
			C304.64,116.127,294.105,109.086,284.686,104.797z"/>
		<path style="fill:#95D0F9;" d="M284.686,104.797c-0.786,1.366-1.272,2.903-1.272,4.291l0.001,23.828
			c0,2.786,5.726,6.71,8.139,5.317l18.866-13.708c1.231-0.711,2.342-1.942,3.136-3.347
			C304.64,116.127,294.105,109.086,284.686,104.797z"/>
		<path style="fill:#3FA9F5;" d="M312.737,126.069l-20.636,11.913c-2.412,1.393-4.368,0.264-4.368-2.522l-0.001-23.828
			c0-2.786,1.956-6.173,4.368-7.566l20.636-11.913c2.413-1.393,4.368-0.264,4.368,2.522l0.001,23.828
			C317.105,121.289,315.149,124.676,312.737,126.069z"/>
		
			<text transform="matrix(0.866 -0.5 4.000000e-05 1 292.8394 126.0553)" style="fill:#FFFFFF; font-family:'Comfortaa-Bold'; font-size:15.3974px;">PHP</text>
		
			<linearGradient id="SVGID_00000098196874236449158590000011910733545631009189_" gradientUnits="userSpaceOnUse" x1="308.9506" y1="130.9165" x2="291.2767" y2="77.4963">
			<stop  offset="0" style="stop-color:#EDFAFF"/>
			<stop  offset="1" style="stop-color:#30384F;stop-opacity:0"/>
		</linearGradient>
		<path style="opacity:0.7;fill:url(#SVGID_00000098196874236449158590000011910733545631009189_);" d="M317.104,101.032l0-6.357
			c0-2.786-1.956-3.915-4.368-2.522l-20.636,11.913c-2.413,1.393-4.368,4.78-4.368,7.566l0.001,16.828
			C296.016,116.255,306.278,106.366,317.104,101.032z"/>
	</g>
</g>
<g id="DESIGNED_BY_FREEPIK">
	<g>
		<g id="XMLID_24_">
			<g id="XMLID_210_">
				<path id="XMLID_278_" style="fill:#1D262D;" d="M260.104,467.465c-0.432,0.443-0.803,0.931-1.108,1.453l-0.465-0.241
					c-0.067-0.298-0.349-0.503-0.659-0.466c-0.331,0.039-0.568,0.339-0.529,0.67c0.039,0.331,0.339,0.568,0.67,0.529
					c0.066-0.008,0.127-0.026,0.184-0.052l0.451,0.234c-0.251,0.554-0.433,1.139-0.539,1.744l0.746,0.132
					c0.23-1.306,0.85-2.507,1.792-3.473L260.104,467.465z"/>
				<path id="XMLID_277_" style="fill:#1D262D;" d="M265.592,465.163c-0.171,0-0.341,0.006-0.51,0.017l-0.074-0.626
					c0.188-0.149,0.296-0.389,0.266-0.645c-0.046-0.393-0.402-0.674-0.795-0.628c-0.393,0.046-0.674,0.402-0.628,0.795
					c0.03,0.254,0.189,0.461,0.404,0.564l0.074,0.624c-0.714,0.116-1.403,0.332-2.06,0.646l0.327,0.684
					c0.934-0.447,1.942-0.673,2.995-0.673c0.496,0,0.993,0.053,1.475,0.158l0.161-0.741
					C266.692,465.222,266.142,465.163,265.592,465.163z"/>
				<path id="XMLID_265_" style="fill:#1D262D;" d="M272.194,467.711c0.331-0.04,0.566-0.341,0.526-0.672
					c-0.04-0.331-0.341-0.566-0.672-0.526c-0.309,0.038-0.535,0.304-0.53,0.609l-0.416,0.363c-0.418-0.43-0.889-0.813-1.408-1.139
					l-0.404,0.641c1.134,0.715,2.021,1.726,2.563,2.925l0.69-0.313c-0.251-0.554-0.568-1.072-0.942-1.545l0.402-0.351
					C272.065,467.716,272.129,467.719,272.194,467.711z"/>
				<path id="XMLID_264_" style="fill:#1D262D;" d="M265.044,475.372c-0.386,0.023-0.775,0.035-1.157,0.035
					c-0.88,0-1.733-0.061-2.478-0.179c-0.39-0.062-0.846-0.155-1.27-0.292c1.046,1.861,3.069,3.125,5.388,3.125
					c2.855,0,5.262-1.916,5.95-4.504c-0.682,0.449-1.505,0.825-2.459,1.123C267.839,475.047,266.463,475.286,265.044,475.372z"/>
				<path id="XMLID_233_" style="fill:#1D262D;" d="M265.592,466.68c-3.352,0-6.08,2.666-6.08,5.943
					c0,0.426,0.046,0.849,0.137,1.261c0.673,0.483,2.706,0.89,5.348,0.731c2.879-0.173,5.297-0.957,6.672-2.159
					c-0.006-0.195-0.021-0.39-0.045-0.582C271.244,468.913,268.65,466.68,265.592,466.68z M263.432,473.194
					c-1.02,0-1.85-0.83-1.85-1.85c0-1.02,0.83-1.85,1.85-1.85c1.02,0,1.85,0.83,1.85,1.85
					C265.282,472.365,264.452,473.194,263.432,473.194z M268.17,472.286c-0.75,0-1.36-0.61-1.36-1.36s0.61-1.361,1.36-1.361
					c0.75,0,1.361,0.61,1.361,1.361S268.92,472.286,268.17,472.286z"/>
			</g>
			<path id="XMLID_209_" style="fill:#1D262D;" d="M281.595,468.547c-0.295-0.116-0.805-0.309-1.382-0.237
				c-0.551,0.069-0.844,0.341-0.844,1.007v0.866h2.228v1.717h-2.228v5.455h-1.932v-5.455h-1.34v-1.717h1.34v-0.888
				c0-1.68,0.896-2.783,2.568-2.783c0.643,0,1.157,0.122,1.59,0.308L281.595,468.547z"/>
			<path id="XMLID_180_" style="fill:#1D262D;" d="M286.298,471.879c-0.177-0.03-0.358-0.046-0.526-0.046
				c-0.895,0-1.51,0.548-1.51,1.614v3.908h-1.932v-7.172h1.873v0.785c0.451-0.673,1.14-0.977,2.021-0.977
				c0.414,0,0.848,0.128,1.094,0.337L286.298,471.879z"/>
			<path id="XMLID_141_" style="fill:#1D262D;" d="M293.965,473.757c0,0.222-0.015,0.489-0.037,0.651h-5.085
				c0.207,1.036,0.933,1.488,1.843,1.488c0.622,0,1.295-0.252,1.813-0.688l1.133,1.243c-0.814,0.748-1.85,1.088-3.057,1.088
				c-2.198,0-3.723-1.495-3.723-3.753c0-2.258,1.48-3.797,3.627-3.797C292.544,469.99,293.958,471.522,293.965,473.757z
				 M288.851,473.091h3.175c-0.177-0.918-0.733-1.436-1.562-1.436C289.554,471.655,289.021,472.203,288.851,473.091z"/>
			<path id="XMLID_69_" style="fill:#1D262D;" d="M301.618,473.757c0,0.222-0.015,0.489-0.037,0.651h-5.085
				c0.207,1.036,0.932,1.488,1.843,1.488c0.622,0,1.295-0.252,1.814-0.688l1.132,1.243c-0.814,0.748-1.85,1.088-3.057,1.088
				c-2.198,0-3.723-1.495-3.723-3.753c0-2.258,1.48-3.797,3.627-3.797C300.197,469.99,301.611,471.522,301.618,473.757z
				 M296.504,473.091h3.175c-0.178-0.918-0.733-1.436-1.562-1.436C297.207,471.655,296.674,472.203,296.504,473.091z"/>
			<path id="XMLID_325_" style="fill:#1D262D;" d="M309.964,473.764c0,2.154-1.495,3.775-3.471,3.775
				c-0.962,0-1.643-0.378-2.109-0.933v3.708h-1.924v-10.133h1.887v0.792c0.466-0.585,1.155-0.984,2.139-0.984
				C308.469,469.99,309.964,471.61,309.964,473.764z M304.287,473.764c0,1.132,0.747,1.976,1.843,1.976
				c1.14,0,1.85-0.881,1.85-1.976c0-1.095-0.711-1.976-1.85-1.976C305.035,471.788,304.287,472.632,304.287,473.764z"/>
			<path id="XMLID_35_" style="fill:#1D262D;" d="M313.067,467.836c0,0.696-0.54,1.229-1.236,1.229
				c-0.696,0-1.229-0.533-1.229-1.229c0-0.696,0.533-1.243,1.229-1.243C312.527,466.592,313.067,467.14,313.067,467.836z
				 M312.809,477.354h-1.932v-7.172h1.932V477.354z"/>
			<path id="XMLID_25_" style="fill:#1D262D;" d="M316.032,472.736l2.702-2.554h2.368l-3.479,3.375l3.501,3.797h-2.376l-2.716-2.901
				v2.901H314.1v-10.658h1.932V472.736z"/>
		</g>
		<g>
			<path style="fill:#1D262D;" d="M184.412,477.289v-1.055c-0.527,0.718-1.391,1.23-2.387,1.23c-1.846,0-3.149-1.406-3.149-3.706
				c0-2.256,1.289-3.721,3.149-3.721c0.952,0,1.816,0.469,2.387,1.245v-3.765h1.099v9.77H184.412z M184.412,475.37v-3.208
				c-0.395-0.615-1.245-1.143-2.124-1.143c-1.421,0-2.27,1.172-2.27,2.739c0,1.567,0.85,2.724,2.27,2.724
				C183.168,476.483,184.017,475.986,184.412,475.37z"/>
			<path style="fill:#1D262D;" d="M186.932,473.744c0-2.051,1.465-3.706,3.486-3.706c2.139,0,3.398,1.67,3.398,3.794v0.279h-5.727
				c0.088,1.333,1.025,2.446,2.549,2.446c0.805,0,1.626-0.322,2.182-0.894l0.527,0.718c-0.703,0.703-1.655,1.084-2.812,1.084
				C188.44,477.465,186.932,475.956,186.932,473.744z M190.403,470.947c-1.509,0-2.256,1.274-2.314,2.358h4.643
				C192.718,472.25,192.015,470.947,190.403,470.947z"/>
			<path style="fill:#1D262D;" d="M194.607,476.351l0.571-0.791c0.469,0.542,1.362,1.011,2.329,1.011c1.084,0,1.67-0.513,1.67-1.216
				c0-1.714-4.38-0.659-4.38-3.281c0-1.098,0.952-2.036,2.636-2.036c1.201,0,2.051,0.454,2.622,1.026l-0.513,0.762
				c-0.424-0.513-1.201-0.894-2.109-0.894c-0.967,0-1.567,0.483-1.567,1.113c0,1.552,4.38,0.527,4.38,3.281
				c0,1.187-0.952,2.138-2.783,2.138C196.306,477.465,195.325,477.113,194.607,476.351z"/>
			<path style="fill:#1D262D;" d="M201.477,468.471c0-0.41,0.337-0.747,0.732-0.747c0.41,0,0.747,0.337,0.747,0.747
				c0,0.41-0.337,0.732-0.747,0.732C201.814,469.203,201.477,468.881,201.477,468.471z M201.667,477.289v-7.075h1.099v7.075H201.667
				z"/>
			<path style="fill:#1D262D;" d="M204.582,479.105l0.556-0.82c0.586,0.703,1.289,0.967,2.3,0.967c1.172,0,2.27-0.571,2.27-2.124
				v-1.011c-0.513,0.718-1.377,1.26-2.373,1.26c-1.845,0-3.149-1.377-3.149-3.662c0-2.27,1.289-3.677,3.149-3.677
				c0.952,0,1.802,0.469,2.373,1.245v-1.069h1.098v6.87c0,2.344-1.641,3.076-3.369,3.076
				C206.237,480.16,205.417,479.926,204.582,479.105z M209.709,475.253v-3.091c-0.381-0.615-1.23-1.143-2.109-1.143
				c-1.421,0-2.27,1.128-2.27,2.695c0,1.553,0.849,2.695,2.27,2.695C208.478,476.41,209.328,475.868,209.709,475.253z"/>
			<path style="fill:#1D262D;" d="M217.413,477.289v-4.629c0-1.245-0.63-1.641-1.582-1.641c-0.865,0-1.685,0.527-2.095,1.099v5.17
				h-1.099v-7.075h1.099v1.025c0.498-0.586,1.465-1.201,2.519-1.201c1.48,0,2.256,0.747,2.256,2.285v4.966H217.413z"/>
			<path style="fill:#1D262D;" d="M219.932,473.744c0-2.051,1.465-3.706,3.486-3.706c2.139,0,3.398,1.67,3.398,3.794v0.279h-5.727
				c0.088,1.333,1.025,2.446,2.549,2.446c0.806,0,1.626-0.322,2.183-0.894l0.527,0.718c-0.703,0.703-1.655,1.084-2.812,1.084
				C221.441,477.465,219.932,475.956,219.932,473.744z M223.404,470.947c-1.509,0-2.256,1.274-2.314,2.358h4.643
				C225.718,472.25,225.015,470.947,223.404,470.947z"/>
			<path style="fill:#1D262D;" d="M233.35,477.289v-1.055c-0.527,0.718-1.392,1.23-2.388,1.23c-1.846,0-3.149-1.406-3.149-3.706
				c0-2.256,1.289-3.721,3.149-3.721c0.952,0,1.817,0.469,2.388,1.245v-3.765h1.098v9.77H233.35z M233.35,475.37v-3.208
				c-0.396-0.615-1.245-1.143-2.124-1.143c-1.421,0-2.27,1.172-2.27,2.739c0,1.567,0.849,2.724,2.27,2.724
				C232.105,476.483,232.954,475.986,233.35,475.37z"/>
			<path style="fill:#1D262D;" d="M239.692,477.289v-9.77h1.098v3.765c0.572-0.776,1.421-1.245,2.388-1.245
				c1.845,0,3.149,1.465,3.149,3.721c0,2.299-1.304,3.706-3.149,3.706c-0.996,0-1.86-0.513-2.388-1.23v1.055H239.692z
				 M242.9,476.483c1.436,0,2.285-1.157,2.285-2.724c0-1.568-0.85-2.739-2.285-2.739c-0.864,0-1.728,0.527-2.109,1.143v3.208
				C241.171,475.986,242.036,476.483,242.9,476.483z"/>
			<path style="fill:#1D262D;" d="M247.528,479.061c0.161,0.073,0.425,0.117,0.601,0.117c0.483,0,0.805-0.161,1.055-0.747
				l0.469-1.069l-2.959-7.148h1.187l2.358,5.8l2.344-5.8h1.201l-3.545,8.51c-0.425,1.025-1.143,1.421-2.08,1.435
				c-0.234,0-0.601-0.044-0.806-0.103L247.528,479.061z"/>
		</g>
	</g>
</g>
</svg>
